<svg width="100%" viewBox="0 0 32 32" xmlns="http://www.w3.org/2000/svg" role="img">
<title style="fill:rgb(0, 0, 0);stroke:none;color:rgb(255, 255, 255);stroke-width:1px;stroke-linecap:butt;stroke-linejoin:miter;opacity:1;font-family:&quot;Anthropic Sans&quot;, -apple-system, &quot;system-ui&quot;, &quot;Segoe UI&quot;, sans-serif;font-size:16px;font-weight:400;text-anchor:start;dominant-baseline:auto">GitHub icon</title>
<defs>
  <clipPath id="gh-inner">
    <rect x="3.04" y="3.04" width="25.92" height="25.92"/>
  </clipPath>
</defs>
<rect x="1.52" y="1.52" width="28.96" height="28.96" fill="#ffffff" style="fill:rgb(255, 255, 255);stroke:none;color:rgb(255, 255, 255);stroke-width:1px;stroke-linecap:butt;stroke-linejoin:miter;opacity:1;font-family:&quot;Anthropic Sans&quot;, -apple-system, &quot;system-ui&quot;, &quot;Segoe UI&quot;, sans-serif;font-size:16px;font-weight:400;text-anchor:start;dominant-baseline:auto"/>
<g clip-path="url(#gh-inner)" style="fill:rgb(0, 0, 0);stroke:none;color:rgb(255, 255, 255);stroke-width:1px;stroke-linecap:butt;stroke-linejoin:miter;opacity:1;font-family:&quot;Anthropic Sans&quot;, -apple-system, &quot;system-ui&quot;, &quot;Segoe UI&quot;, sans-serif;font-size:16px;font-weight:400;text-anchor:start;dominant-baseline:auto">
  <rect x="3.04" y="3.04" width="25.92" height="25.92" fill="#24292e" style="fill:rgb(36, 41, 46);stroke:none;color:rgb(255, 255, 255);stroke-width:1px;stroke-linecap:butt;stroke-linejoin:miter;opacity:1;font-family:&quot;Anthropic Sans&quot;, -apple-system, &quot;system-ui&quot;, &quot;Segoe UI&quot;, sans-serif;font-size:16px;font-weight:400;text-anchor:start;dominant-baseline:auto"/>
  <path fill="#ffffff" fill-rule="evenodd" d="M16 4.5C9.65 4.5 4.5 9.65 4.5 16c0 5.1 3.292 9.423 7.863 10.953.575.105.784-.25.784-.555 0-.274-.01-1.17-.015-2.124-3.197.694-3.872-1.54-3.872-1.54-.523-1.328-1.277-1.681-1.277-1.681-1.044-.714.079-.699.079-.699 1.154.081 1.762 1.185 1.762 1.185 1.026 1.758 2.691 1.25 3.348.956.104-.743.401-1.25.73-1.537-2.553-.29-5.237-1.277-5.237-5.683 0-1.255.449-2.28 1.184-3.084-.119-.29-.513-1.459.112-3.042 0 0 .965-.309 3.16 1.178A10.97 10.97 0 0116 9.62c.977.004 1.96.132 2.878.387 2.193-1.487 3.156-1.178 3.156-1.178.627 1.583.233 2.752.114 3.042.737.804 1.183 1.829 1.183 3.084 0 4.417-2.688 5.39-5.249 5.674.413.355.78 1.055.78 2.127 0 1.537-.014 2.775-.014 3.152 0 .308.207.666.79.553C24.204 25.42 27.5 21.1 27.5 16 27.5 9.65 22.35 4.5 16 4.5z" style="fill:rgb(255, 255, 255);stroke:none;color:rgb(255, 255, 255);stroke-width:1px;stroke-linecap:butt;stroke-linejoin:miter;opacity:1;font-family:&quot;Anthropic Sans&quot;, -apple-system, &quot;system-ui&quot;, &quot;Segoe UI&quot;, sans-serif;font-size:16px;font-weight:400;text-anchor:start;dominant-baseline:auto"/>
</g>
</svg>