<?xml version="1.0" encoding="UTF-8"?>
<svg id="Layer_1" xmlns="http://www.w3.org/2000/svg" version="1.1" viewBox="0 0 3660.98 2928.78">
  <!-- Generator: Adobe Illustrator 30.1.0, SVG Export Plug-In . SVG Version: 2.1.1 Build 136)  -->
  <defs>
    <style>
      .st0 {
        fill: #ffd509;
      }

      .st1 {
        fill: #ff1906;
      }

      .st2 {
        fill: #fff;
      }

      .st3 {
        fill: #fd9f00;
      }
    </style>
  </defs>
  <g>
    <path class="st1" d="M3193.52,832.83c28.96-49.26,44.95-106.02,48-170.28,5.06-97.63-25.85-170.34-92.74-218.07-66.88-47.73-158.39-70.54-274.49-68.49-52.23.93-99.13,3.22-140.8,6.85l8.61-46.09-131.14,63.89c-2.22.5-4.49,1-6.65,1.52-38.57,9.52-64.78,22.86-78.66,40.04-13.92,17.21-24.41,41.51-31.53,72.87-72.22,302.82-119.25,526.86-141.09,672.09-21.87,145.26-38.03,270.93-48.53,377.06-10.47,106.11-14.25,176.29-11.29,210.47,1.91,21.98,14.92,44.25,39.01,66.76,24.1,22.54,52.47,40.99,85.08,55.38,32.63,14.39,60.15,23.08,82.56,26.07,12.4,1.37,27.59-7.93,45.56-27.94,172.67,4.7,317.58-37.68,434.73-127.2,117.12-89.52,199.11-183.67,245.93-282.49,35.36-74.42,54.92-146.89,58.67-217.35,7.57-83.08-12.52-147.79-60.19-194.13-47.71-46.3-120.41-65.24-218.12-56.77,95.76-73.51,158.12-134.89,187.07-184.18ZM2956.74,1476.31c-38.34,61.78-86.05,114.51-143.17,158.23-57.12,43.71-132.45,72.71-225.96,86.96,9.11-164.43,24.37-307.88,45.76-430.34,23.46-13.11,51.33-25.36,83.57-36.78,32.24-11.39,68.4-20.06,108.48-26.02,117.81-17.59,179.45,12.13,184.92,89.18,2.59,44.07-15.29,97.02-53.6,158.77ZM2903,834.94c-52.88,64.29-135.79,112.37-248.67,144.3l67.09-354.66c90.23-23.8,154.89-26.34,194.07-7.59,39.15,18.76,59.9,41.59,62.22,68.44,3.07,35.44-21.85,85.27-74.71,149.52Z"/>
    <path class="st0" d="M2617.13,1806.37c-32.62-14.39-60.99-32.84-85.08-55.38-24.1-22.51-37.11-44.77-39.01-66.76-2.96-34.18.82-104.36,11.29-210.47,10.5-106.12,26.66-231.79,48.53-377.06,21.84-145.23,68.87-369.27,141.09-672.09,7.11-31.36,17.61-55.66,31.53-72.87,13.88-17.18,40.09-30.53,78.66-40.04,63.87-15.37,153.88-24.09,269.98-26.17,116.1-2.05,207.61,20.77,274.49,68.49,66.89,47.73,97.8,120.44,92.74,218.07-3.05,64.26-19.04,121.02-48,170.28-28.95,49.29-91.31,110.67-187.07,184.18,97.7-8.47,170.4,10.47,218.12,56.77,47.67,46.34,67.77,111.04,60.19,194.13-3.75,70.47-23.32,142.93-58.67,217.35-46.81,98.82-128.8,192.97-245.93,282.49-117.15,89.52-262.06,131.91-434.73,127.2-17.97,20.01-33.16,29.32-45.56,27.94-22.41-2.99-49.94-11.68-82.56-26.07ZM3013.39,1544.07c57.12-43.71,104.83-96.45,143.17-158.23,38.31-61.75,56.19-114.7,53.6-158.77-5.47-77.05-67.11-106.77-184.92-89.18-40.09,5.96-76.25,14.63-108.48,26.02-32.24,11.42-60.11,23.67-83.57,36.78-21.4,122.46-36.65,265.91-45.76,430.34,93.52-14.25,168.84-43.24,225.96-86.96ZM2854.15,888.78c112.88-31.93,195.78-80.01,248.67-144.3,52.86-64.25,77.78-114.08,74.71-149.52-2.33-26.85-23.07-49.68-62.22-68.44-39.18-18.75-103.84-16.21-194.07,7.59l-67.09,354.66Z"/>
    <path class="st3" d="M3411.22,1011.95c-.09-.1-.18-.2-.26-.3-32.39-37.02-81.23-56.44-130.03-62.62-97.65-12.36-183.78,17.22-274.91,46.76-56.76,18.4-113.18,37.87-169.43,57.77-73.1,25.86-145.97,52.43-218.51,79.85-.14.05-1.6.46-1.62.62-2.22,13.24-4.28,25.98-6.06,37.88-17.29,114.78-30.05,214.08-38.35,297.94-4.69,47.57-7.68,85.98-8.96,115.27l-1.63,2.9-3.42,123.33s130.14,90.84,149.94,82.28c5.74-2.48,10.22-8.77,13.73-16.39,63.69-16.19,129.78-12.83,194.86-26.26,114.84-23.7,219.79-76.62,312.61-147.56,69.81-53.35,116-130.66,155.08-207.86,43.69-86.31,84.51-183.4,70.23-282.24-5.32-36.86-18.83-73.26-43.28-101.35ZM3188.59,1448.87c-149.93,235.61-441.73,226.13-441.73,226.13l44.48-492.71c526.64-263.93,547.18,30.97,397.26,266.58Z"/>
    <path class="st3" d="M2618.72,1072.96l-1.15,43.11s533.83-201.7,562.17-190.47l-15.01-37.8-546.02,185.16Z"/>
    <path class="st3" d="M2651.34,1018.97l-.96,35.89s444.38-167.9,467.97-158.55l-12.49-31.47-454.52,154.13Z"/>
  </g>
  <g>
    <g>
      <path class="st1" d="M2236.51,846.75l44.92-25.61-97.9-123.2-70.96,28.79c-40.44-25.84-85.56-45.77-135.66-59.42-75.55-20.55-143.8-34.81-204.86-42.77l18.45-8.69-9-103.83-196.68,90.82c-6.13,1.5-11.9,4.19-17.33,8l-140.74,64.99,7.19,5.34c-8.52,6.86-14.13,14.7-16.74,23.57-4.64,17.65,6.74,42.5,34.15,74.56-53.46,149.84-95.55,366.99-126.27,651.43-30.82,283.23-43.32,458.45-37.5,525.6,3.28,37.87,16.59,63.8,39.96,77.75,40.46,12.5,66.84,18.84,79.17,18.98,15.54,23.28,46.89,40.52,94.01,51.84,26.9,6.44,50.39,10.8,70.73,13.2l101.33,18.92,172.92-119.48-60.03-67.97c10.99-10.49,21.49-20.26,31.32-28.98,22.29-19.75,36.77-33.64,43.47-41.61,134.64-135.94,242.74-294.21,324.31-474.78,72.93-166.27,106.6-303.33,100.94-411.13-3.74-52.86-20.16-101.63-49.19-146.33ZM1938.86,1144.05c-39.71,109.89-92.43,221.83-158.24,335.8-65.79,114-124.99,194.2-177.56,240.58,12.58-223.8,41.69-469.96,87.34-738.49,7.95-49.89,24.56-92.58,49.82-127.99,34.56-12.83,81.22-21.17,139.95-25.05,39.18-2.16,67.05.05,83.63,6.6,16.56,6.58,26.07,23.9,28.51,51.98,4.06,61.19-13.75,146.72-53.44,256.58Z"/>
      <path class="st0" d="M1700.54,2014.44c-47.13-11.31-78.47-28.56-94.01-51.84-12.32-.14-38.71-6.48-79.17-18.98-23.36-13.95-36.67-39.88-39.96-77.75-5.82-67.15,6.68-242.38,37.5-525.6,30.72-284.43,72.8-501.58,126.27-651.43-27.4-32.06-38.79-56.91-34.15-74.56,8.56-29.03,48.79-47.29,120.77-54.77,17.57-38.44,42.06-54.09,73.44-46.97,23.83,5.32,69.3,11.53,136.36,18.64,67.07,7.11,143.42,22.35,229.14,45.66,85.68,23.35,157.24,64.53,214.67,123.52,57.4,59.02,88.76,126.44,94.12,202.26,5.66,107.8-28.01,244.86-100.94,411.13-81.57,180.57-189.67,338.84-324.31,474.78-6.7,7.96-21.18,21.85-43.47,41.61-22.28,19.78-47.56,44.12-75.8,73.02-28.26,28.93-60.03,67.04-95.3,114.39-12.91,7.26-24.24,11.33-34.01,12.18-26.98,1.1-64.03-4-111.15-15.28ZM1980.44,1389.38c65.81-113.97,118.53-225.91,158.24-335.8,39.68-109.86,57.5-195.39,53.44-256.58-2.43-28.08-11.95-45.4-28.51-51.98-16.57-6.55-44.45-8.75-83.63-6.6-58.73,3.88-105.39,12.22-139.95,25.05-25.26,35.41-41.87,78.09-49.82,127.99-45.66,268.53-74.76,514.7-87.34,738.49,52.56-46.37,111.77-126.58,177.56-240.58Z"/>
      <path class="st3" d="M2090.71,1293.01c-24.01,53.64-51.78,107.87-83.45,162.7-45.22,78.37-175.98,210.53-250.64,251.4,6.23-116.53-2.29-324.19,14.2-446.87-80.98.37-111.91,3.28-191.43,16.59-4.92,36.81-9.56,75.26-13.91,115.48-24.35,223.8-34.23,362.25-29.63,415.32,2.59,29.92-5.75,46.66,12.71,57.68,31.97,9.88,52.82,14.88,62.56,15,12.28,18.4,67.85,28.18,105.09,37.13,51.39,13.29,110.81,17.23,126.53,16.59,7.72-.67,16.67-3.88,26.87-9.62,27.87-37.42,52.97-67.53,75.3-90.39,22.32-22.83,42.29-42.07,59.9-57.7,17.61-15.61,29.06-26.58,34.35-32.88,106.39-107.42,184.68-221.25,249.14-363.93,5.26-12,10.17-23.73,14.92-35.34-80.67-33.19-126.67-38.69-212.53-51.15Z"/>
    </g>
    <polygon class="st3" points="1582.27 1224.01 1579.73 1260.68 1769.45 1244.24 1766.31 1208.05 1582.27 1224.01"/>
    <polygon class="st3" points="1598.74 1177.99 1596.63 1208.46 1754.22 1194.8 1751.62 1164.74 1598.74 1177.99"/>
    <polygon class="st3" points="2115.6 1237.81 2101.86 1275.61 2306.32 1315.58 2313.95 1276.59 2115.6 1237.81"/>
    <polygon class="st3" points="2146.81 1194.4 2135.4 1225.79 2305.23 1259 2311.57 1226.61 2146.81 1194.4"/>
  </g>
  <g>
    <path class="st1" d="M1271.99,965.72c-.87-10.04-9.02-22.12-24.1-36.12l.54-.05,46.07-179.39-208.25,92.73c-.17.06-.33.16-.5.22l-3.94,1.76v.28c-7.07,3.66-13.76,9.14-19.99,16.97-133.11,167.82-243.34,298.28-330.62,391.35-87.31,93.11-171.1,159.12-251.4,198.06-3.18-36.64,2.89-105.15,18.18-205.54,15.29-100.36,40.22-199.43,74.84-297.2,6.84-20.26-7.32-38.13-42.48-53.53-1.5-.66-3.06-1.3-4.57-1.95l86.54-80.37-51.96-61.03-182.02,89.59c-16.98-.86-28.04,4.52-33.05,16.27-21.52,49.85-39.79,101.91-54.77,156.1-15,54.22-32.79,132.68-53.42,235.35-15.11,81.31-33.06,201-53.79,359.05-20.76,158.09-35.4,343.93-43.96,557.54-1.66,51.82,2.78,85.3,13.31,100.37,10.54,15.09,25.39,26.72,44.56,34.9,24.14,8.98,78.02,27.1,161.6,54.29,14.44,3.66,27.28,5.61,38.52,5.87h0c11.27.26,20.94-1.19,28.98-4.34,8.82-3.47,14.86-9.01,18.33-16.46l197.93-87-208.27-91.9-7.87-90.75c-8.04-92.8-.65-156.52,22.19-191.11,22.85-34.57,43.84-58.54,62.98-71.91,19.15-13.34,29.28-20.68,30.39-22.02,68.41,150.36,181.74,315.27,340.05,494.73,23.08,25.05,48.77,37.59,77.09,37.62,14.66-1.27,42.31-8.6,83-21.96,40.67-13.39,67.83-23.1,81.46-29.21,13.6-6.08,33.38-15.82,59.31-29.14,31.81-16.28,31.63-39.66-.54-70.09-134.41-131.08-232.53-247.77-294.29-350.11-61.79-102.31-105.21-184.37-130.24-246.19,128.26-124.32,215.97-212.82,263.08-265.52,47.12-52.68,86.44-99.46,117.97-140.36,31.53-40.86,56.7-73.21,75.57-96.99,18.85-23.78,33.36-44.42,43.55-61.91,10.17-17.49,14.84-31.11,13.99-40.9Z"/>
    <path class="st0" d="M1081.88,2190.02c-158.32-179.45-271.64-344.37-340.05-494.73-1.12,1.34-11.24,8.67-30.39,22.02-19.14,13.36-40.13,37.33-62.98,71.91-22.84,34.6-30.24,98.31-22.19,191.11l21.44,247.32c1.69,19.52-5.5,32.46-21.56,38.78-16.07,6.3-38.58,5.79-67.5-1.53-83.57-27.19-137.46-45.31-161.6-54.29-19.17-8.17-34.02-19.81-44.56-34.9-10.53-15.07-14.96-48.54-13.31-100.37,8.56-213.61,23.2-399.46,43.96-557.54,20.73-158.05,38.68-277.73,53.79-359.05,20.63-102.67,38.42-181.13,53.42-235.35,14.98-54.19,33.25-106.25,54.77-156.1,8.17-19.17,32.28-21.55,72.29-7.19,39.99,14.39,77.57,29.27,112.76,44.68,35.17,15.41,49.32,33.27,42.48,53.53-34.62,97.77-59.55,196.83-74.84,297.2-15.29,100.39-21.36,168.89-18.18,205.54,80.29-38.94,164.09-104.95,251.4-198.06,87.27-93.08,197.5-223.53,330.62-391.35,19.98-25.09,44.26-28.76,72.88-10.93,28.6,17.82,57.95,37.14,88.08,57.89,31.53,23.11,47.94,41.99,49.21,56.65.85,9.79-3.82,23.4-13.99,40.9-10.19,17.5-24.7,38.13-43.55,61.91-18.87,23.78-44.04,56.14-75.57,96.99-31.53,40.89-70.85,87.67-117.97,140.36-47.11,52.7-134.81,141.21-263.08,265.52,25.03,61.83,68.45,143.89,130.24,246.19,61.76,102.34,159.87,219.03,294.29,350.11,32.18,30.44,32.36,53.81.54,70.09-25.92,13.32-45.7,23.05-59.31,29.14-13.63,6.11-40.79,15.82-81.46,29.21-40.69,13.36-68.34,20.69-83,21.96-28.32-.03-54.01-12.56-77.09-37.62Z"/>
    <path class="st3" d="M1303.74,2032.44c-106.21-103.57-183.74-195.78-232.54-276.65-33.65-55.7-113.79-217.43-133.64-257.95,0,0-510.24-27.27-528.26,48.66-1.13,4.77-1.82,9.96-2.13,15.5-2.86,20.86-5.78,42.67-8.79,65.59-16.41,124.92-27.97,271.77-34.74,440.56-1.31,40.95,2.19,67.4,10.52,79.31,8.33,11.93,20.06,21.12,35.21,27.58,19.07,7.1,61.65,21.41,127.69,42.9,22.85,5.79,40.64,6.18,53.34,1.21,12.69-5,18.37-15.22,17.04-30.65l-16.94-195.43c-4.11-47.47-3.08-85.24,3.03-113.44.55-40.12,2.19-80.34,4.62-120.63,47.15-46.81,114.41-107.12,157.6-117.86,58.06,119.11,193.95,348.08,310.71,480.42,18.23,19.79,38.54,29.7,60.91,29.72,11.58-1,33.43-6.8,65.58-17.35,32.13-10.58,53.6-18.25,64.36-23.08,10.75-4.81,26.38-12.5,46.86-23.02,25.14-12.87,25-31.33-.43-55.38Z"/>
    <path class="st3" d="M420.13,1465.34l-3.93,46.75s223.28-51.5,512.16-28.27l-18.34-40.4-489.89,21.92Z"/>
    <path class="st3" d="M431.5,1419.88l-5.76,33.02s204.11-19.88,471.03-22.74l-21.41-29.5-443.86,19.23Z"/>
  </g>
  <path class="st2" d="M3163.04,643.64s160.63-39.5,160.63-94.8,18.43-163.26,18.43-163.26h23.7l22.7,146.3c.69,4.48,2.98,8.46,6.42,11.41,11.76,10.09,92.53,29.99,138.42,37.79,19.21,3.27,20.47,30.74,1.74,36.13-8.75,2.52-18.55,5.18-29.54,7.99,0,0-110.78,15.8-113.41,65.83-2.04,38.71-9.89,121.54-13.34,157.06-.93,9.55-8.95,16.74-18.54,16.74h0c-8.99,0-16.7-6.42-18.33-15.26l-31.19-169.32c-1.65-8.97-9.55-15.42-18.67-15.26l-129.02,2.35v-23.7Z"/>
  <path class="st2" d="M112.05,2153.47s143.29-35.24,143.29-84.56,16.44-145.64,16.44-145.64h21.14l20.25,130.51c.62,4,2.65,7.55,5.72,10.18,10.49,9,82.54,26.75,123.48,33.71,17.13,2.91,18.26,27.42,1.56,32.23-7.8,2.25-16.55,4.62-26.35,7.12,0,0-98.82,14.09-101.17,58.73-1.82,34.53-8.82,108.42-11.9,140.1-.83,8.52-7.98,14.93-16.54,14.93h0c-8.02,0-14.9-5.73-16.35-13.61l-27.82-151.04c-1.47-8-8.52-13.76-16.65-13.61l-115.1,2.09v-21.14Z"/>
  <g>
    <path class="st2" d="M2791.65,2043.68l18.17-14.09c4.17-3.23,6.33-6.88,12.29-8.31,5.65-1.36,5.62-9.62,11.08-11.64,2.48-.92,3.16-1.61,2.22-3.74-3.04-6.85-20.24.35-19.52-.38l-10.14,10.43c-.18.18-.4.3-.59.47-7.21,9.84-18.41,16.2-17.59,29.28,4.9,2.19,2.46-.77,4.08-2.02Z"/>
    <g>
      <path class="st2" d="M2907.77,2186.39c-7.37-1.91-8.53-49.04-7.82-42.31-.55-5.31-1.11-10.62-1.66-15.93-.69-6.64.55-10.57-1.18-17.82-2.24-9.42-.78-19.4-2.03-28.97-1.16-8.88,2.47-11.53,7.3-11.73,1.38-.06,2.03-3.85,3-4.37,1.43-.76,3.6,1.86,5.05,2.49,6.83,2.99,11.16,10.11,15.03,19.54,12.14,29.63,34.74,62.33,56.38,71.05,3.72,1.5,7.73-.99,10.54-2.1,2.07-.82,2.81-8.79,2.21-12.43-.77-4.66-1.53-9.31-2.3-13.97-1.88-8.32-3.77-16.64-5.65-24.96-2.77-12.22-6.36-29.03-6.53-40.54-.12-8.19-2.45-17.35.12-23.89,2.72-6.91,6.79-7.35,13.16-3.5,3.21,1.94,10.24,5.65,10.44,12.68.38,13.22-6.52,6.12,1.48,43.36,2.78,12.94,10.07,46.48,10.23,57.36.17,11.65-3.14,22.22-6.85,30.36-1.28,2.8-4.84,2.06-5.7,5.78-1.03,4.44-4.84,3.44-7.01,4.84-4,2.57-7.77.56-12.13-.46-21.87-5.17-55.99-50.49-68.27-83.08-.99,17.74-1.96,39.77.73,56.5,1.81,11.24-.06,24.31-8.53,22.1Z"/>
      <path class="st2" d="M2123.22,2309.95c-5.7-4.62-13.27-3.29-19.72-4.93-19.76-5.02-22.72,3.48-49.32-4.4-7.5-2.22-9.41-11.75-8.72-19.47.65-7.36,5.32-13.45,11.82-19.42,7.26-6.68,17.96-19.44,25.53-25.27-7.29-6.09-16.04-1.93-25.21-.48-9.32,1.45-40.63,6.78-44.43,16.39-5.44,13.71,1.93,28.99,4.17,42.6.76,4.64,9.3,39.34,10.31,41.95,4.18,10.82,5.71,20.73-4,32.08-9.21-3.86-10.66-13.19-12.62-23.67-1.39-7.42-2.78-14.84-4.17-22.26-3.89-20.8-7.23-41.23-8.08-62.71-.34-8.58-.22-18.67,5.82-25.33,3.77-4.16,8.39,1.02,11.81.89,6.41-.26,11.67-8.12,18.03-8.93,18.01-2.26,11.25-9,49.76-9.8,6-.12,15.77,4.92,17.42,10.55,4.9,16.65-39.86,47.9-31.16,51.51,7.48,3.07,16.31-2.15,23.73-.8,13.79,2.46,50.35-1.95,54.64,23.57,2.26,13.44-10.07,26.07-18.02,35.34-5.58,6.51-10.47,9.04-17.14,13.33-26.96,17.31-49.02-7.24-49.07-8.36-.11-2.78,2.09-4.49,5.32-4.89,9.27-1.17,48.29-15.82,53.32-27.47Z"/>
      <path class="st2" d="M1671.7,2432.93c-6.49,4.81-42.03,16.65-43.76,17.83-1.89,1.34-2.51,25.87-2.33,26.56,3.14,12.17-1.07,25.88-12.89,32.64-7.25-6.31-5.28-16.41-5.93-25.79-.61-8.81-1.22-17.62-1.83-26.43-.63-9.08-.7-16.5.22-25.53.81-7.97-2.15-14.32-.67-23.05,2.98-17.6.42-40.3,11.7-56.81,10.42-15.24,29.9-7.71,39,.84,9.98,9.38,18.87,15.98,25.62,27.78,3.25,5.69,15.99,23.01,16.64,28.59,2.47,1.01,6.13-.61,8.79,1.75-10.26,8.56,12.52,20.6,13.17,43.73.14,5.01-4.1,13.53-7.2,16.82-5.03,5.32-10.81,3.05-16.4,1.56-4.62-1.23-5.51-6.14-8.42-11.5-5.24-9.66-10.47-19.33-15.71-29ZM1645.9,2425.36c7.49-3.61,14.24-3.26,20.44-9.45-7.3-5.16-9.16-12.21-13.59-18.22-3.12-4.23-6.24-8.46-9.35-12.7-3.16-4.29-8.07-6.14-10.16-10.73-1.3,3.8-3.82,5.78-4.01,8.63-.59,8.7-1.18,17.39-1.77,26.09-.57,8.38-.66,16.72-.59,25.51,6.35-3.03,12.69-6.08,19.03-9.14Z"/>
      <path class="st2" d="M995.11,2550.27c-6.83,4.32-43.14,13.5-44.95,14.55-1.98,1.2-4.41,25.62-4.29,26.31,2.24,12.37-2.98,25.73-15.26,31.6-6.76-6.83-4.05-16.75-4.01-26.15.04-8.83.09-17.66.13-26.49.04-9.1.52-16.5,2.11-25.45,1.4-7.89-1.09-14.44,1.03-23.04,4.27-17.33,3.39-40.16,15.87-55.79,11.52-14.43,30.39-5.48,38.83,3.72,9.26,10.09,17.64,17.33,23.5,29.6,2.82,5.92,14.25,24.13,14.48,29.74,2.39,1.19,6.16-.15,8.64,2.4-10.87,7.78,10.97,21.47,9.9,44.58-.23,5.01-5.09,13.19-8.43,16.24-5.41,4.94-11,2.25-16.47.35-4.52-1.57-5.04-6.53-7.55-12.09-4.51-10.02-9.02-20.05-13.53-30.08ZM969.94,2540.82c7.74-3.05,14.44-2.2,21.09-7.91-6.89-5.68-8.24-12.86-12.2-19.17-2.8-4.45-5.59-8.9-8.39-13.35-2.83-4.51-7.59-6.72-9.34-11.46-1.58,3.7-4.23,5.48-4.63,8.31-1.23,8.63-2.46,17.26-3.69,25.89-1.19,8.32-1.9,16.62-2.48,25.4,6.55-2.56,13.1-5.13,19.65-7.71Z"/>
      <path class="st2" d="M2824.51,2157.01c-9.56-4.16-50.33-1.11-55.94-8.25-5.65,11.21-4.92,21.74-6.95,33.21-1.56,8.85-3.47,16.76-4.09,26.27-.47,7.24-6.56,17.06-14.84,14.85-11.22-3-2.92-42.17-2.47-46.07,1.16-10.1,2.32-20.18,3.48-30.27.12-1.07-2.82-4.09-3.21-5.07-.81-2.05,4.35-2.44,4.42-3.98.35-7.39,3.26-13.71,4.25-20.44,1.96-13.33,4.85-24.6,10.12-36.56,4.14-9.38,7.41-20.41,19.64-22.33,5.18,1.86,13.89,4.23,19.15,7.79,10.63,7.18,24.88,30.29,31.51,41.61,6.74,11.5,15.38,22.08,21.69,34.3,9.13,4.89,18.05,2.32,23.2,6.14,6.15,4.56-9.46,2.47-12.67,5.14-5.57,4.57,12.22,13.81,2.65,26.11-1.72,2.21-1.46,7.62-5.6,8.14-6.1.77-14.98-3.56-19.39-9.33-4.42-5.78-6.92-17.78-14.96-21.26ZM2817.68,2138.94c-6.84-7.13-8.96-14.53-13.19-21.71-3.33-5.64-6.66-11.28-9.98-16.91-3.01-5.1-7.09-9.09-10.56-14.62-6.03,10.66-7.4,22.47-10.91,34.6-1.68,5.79-3.35,11.59-5.03,17.4,12.89.19,25.79.53,38.72,1.03,3.85.15,7.72,3.58,10.95.21Z"/>
      <path class="st2" d="M1873.3,2400.58c-17.47,22.55-36.91,43.58-60.24,55.32-6.57,3.31-13.14,6.61-19.72,9.91-5.52,2.16-11.04,4.32-16.56,6.47-2.84,1.11-8.04,2.89-10.42,1.93-2.03-.82-4.85-3.43-5.39-6.97-.94-6.21-1.87-12.42-2.81-18.63,9.58-21.25,19.16-42.52,28.73-63.81,6.26-13.91,11.67-27.75,17.07-42.09,1.9-5.04,2.97-10.39,7.3-15.03-6.31-8.54-39.1,3.26-51.95,5.19-9.9,1.5-19.8,2.99-29.71,4.46-4.64.69-19.41.33-18.85-10.94,11.18-5.62,44.26-9.66,53.58-13.11,8.35-3.08,15.3-5.17,23.87-6.69,10.75-1.91,30.59-9.09,40.36,4.64,3.76,5.28,3.93,12.83,1.39,19.73-5.95,16.2-10.41,32.32-17.02,48.01-6.25,14.82-12.5,29.64-18.75,44.45-2.28,4.88-4.57,9.76-6.85,14.63,8.59-7.65,18.45-7.18,26.12-16.4,7.31-8.78,17.9-12.75,28.25-13.48,11.11-.79,19.94-11.11,31.58-7.59Z"/>
      <path class="st2" d="M2213.91,2285.78c8.49-1.29,23.15-9.69,31.47-14.63,5.27-3.13,10.54-6.26,15.81-9.37,20.88-12.28,28.78-16.79,52.99-23.05-2.13,22.4-20.85,36.75-40.12,45.69-18.82,8.61-64.14,45.21-82.39,16.69-6.92-10.84-8.09-25.18-9.82-39.24-5.63,1.93-10.32,7.2-15.68,7.48-3.4.18-3.38-5.89-3.82-8.75-.41-2.68,16.18-17.26,18.81-16.62-5.1-15.62-1.73-31.14-7.82-48.97-2.06-6.03-7.37-11.48-2.61-18.98,1.73-2.73,6.5,0,9.25.72,9.02-7.78,19.85-12.7,30.68-16.55,5.64-2,11.28-4,16.93-5.98,8.57-3.01,15.64-4.47,24.13-6.05,8.08-1.5,14.47-5.1,22.93-3.34,6.74,1.4,14.05-5.83,21.76-3.1-6.46,8.13-15.27,8.78-23.08,11.6-7.11,2.57-14.22,5.16-21.33,7.77-7.32,2.4-14.64,4.82-21.95,7.26-10.65,3.53-34.29,10.06-39.12,13.92-6.5,5.15-.63,14.33.77,18.88,3.34,10.88,2.74,20.53,5.5,32.26,6.52-6.21,14.29-7.54,21.33-11.67,6.26-3.73,36.72-19.82,42.15-17.96-1.16,6.6-6.91,5.71-9.57,8.74-5.13,5.74-45.03,30.69-49.5,35.69-5.92,6.51,1.18,18.03,2.52,25.1,1.11,5.85,3.5,13.4,9.79,12.45Z"/>
      <path class="st2" d="M816.16,2616.11c-1.94,10.61,11.49,19.54-9.89,27.22-2.62.93-6.47-5.51-6.75-7.75-1.38-11.09-2.75-22.18-4.13-33.27-1.38-11.11-3.7-22.54-5.82-34.15-.83-4.55-1.66-9.11-2.49-13.66-2.67-14.67-7.99-37.4-9.64-48.95-1.68-11.75-9.11-24.52-8.28-35.79.58-7.84,10.62-3.5,16.57-2.09,3.14.75,5.44-2.62,8.29-1.81,2.25.65,8.88,4.09,8.18,6.22-6.87,5.07-3.64,9.88-2.77,17.03,2.15,17.81,1.91,35.04,7.41,53.34.77,2.57-1.97,4.83.51,8.17,12.23-6.62,30.02-30.23,36.28-43.07,2.71-5.54,5.42-11.08,8.12-16.65,5.22-10.72,13.1-19.38,16.12-32.68,4.06.54,6.52,3.31,10.92,4.85-9.05,12.42-12.83,31.27-19.38,41.81-14.11,22.59-16.26,40.42-39.43,56.61,9.83,5.05,16.19,10.47,24.22,14,9.24,4.06,18.47,8.04,27.69,11.94,7.61,4.32,15.22,8.59,22.82,12.81,7.68,4.26,13.9,9.81,22.5,13.44-1.46,3.73-5.99,6.72-10.92,4.63-8.12-3.43-15.92-1.6-23.79-4.34-29.47-10.33-42.53-17.27-69.63-35.1.21,4.62.42,9.25.63,13.87.36,7.85,4.11,15.51,2.68,23.36Z"/>
      <path class="st2" d="M1493.61,2481.8c3.56,36.66-25.35,76.88-60.32,85.29-8.69,2.11-22.59.8-25.91-5.67-4.03-7.85-5.06-9.33-12.48-11.58-9.52-2.89-15.4-32.67-17.37-43-1.55-8.16-3.1-16.33-4.65-24.49-2.69-14.14-13.57-89.45-1.65-95.52,1.52-.77,6.64-.01,6.64,1.98,0,4.43-6.98,5.7-3.51,11.7,14.51-12.97,35.03-22.27,55.1-17.37,13.71,3.36,25.73,7.84,36.11,18.63,13.7,14.24,22.67,33.98,26.39,55.29,1.36,7.78.81,16.04,1.66,24.74ZM1467.01,2518.75c8.17-9.5,8.43-20.96,9.85-32.49,3.51-28.38-6.16-61.81-26.66-80.75-27.56-25.33-78.7-7.35-75.77,7.4,1.72,8.7,2.38,16.94,3.77,25.64,1.06,6.66,2.13,13.32,3.19,19.98,1.25,7.82,3.23,15.81,5.16,23.36,1.71,6.71,3.43,13.43,5.14,20.14,2.23,7.17,4.47,14.34,6.7,21.51,1.68,5.4,5.34,12.1,6.06,17.86,32.96,4.12,41.85,1.33,62.54-22.64Z"/>
      <path class="st2" d="M1204.39,2549.15c2.09-7.22,3.7-12.88,5.8-19.45-15.16.02-31.91-16.77-40.71-27.19-6.8-8.02-25.51-26.27-16.14-36.97,1.05-1.19,4.91-.17,5.2,1.08,3.24,14.09,45.4,38.67,52.27,57.01,5.46-10.37,9.23-41.82,11.41-54.27,1.33-7.57,2.66-15.14,3.98-22.71.77-4.39,15.22-3.05,14.97,2.2-.32,6.75-.64,13.49-.96,20.24-1.56,32.82-4.63,48.39-11.55,79.48-2.19,9.85-4.38,19.69-6.57,29.54-2.35,9.52-4.7,19.04-7.04,28.56-.7,2.85-17.42,29.82-21.14,30.21-3.91.44-3.54-3.04-4.47-5.87-6.07-18.42,2.73-39.69,7.06-54.64,2.63-9.07,5.26-18.14,7.88-27.22Z"/>
      <path class="st2" d="M2448.59,2214.42c2.95,9.13-38.92,36.73-45.3,39.78-5.36,2.45-10.71,4.92-16.07,7.4-13.85,6.4-33.3,22.59-41.98,10.26-5.64-8.01-5.17-15.47-5.89-24.69-.56-7.16-1.12-14.31-1.67-21.46-3.92-50.21-8.46-40.26-16.08-80.39-.76-4.02.51-7.46,2.72-9.42,4.55-4.04,17.44-.53,17.55,4.1-5.76,5.45-4.91,10.97-1.58,16.96,6.15,11.06,13.1,33.71,15.31,46.27,1.09,6.2,1.61,12.09,3.58,18.64,1.88,6.24-2.4,14.15,2.23,19.62,7.47.47,13.25-5.65,19.74-9.42,27.41-15.86,39.07-11.88,67.44-17.65Z"/>
      <path class="st2" d="M1104.72,2604.07c-8.2-9.44-8.17-44.04-7.23-49.27-.29,1.64-7.21-96.73-12.51-103.85-5.95,3.32-12.27,1.75-17.92,2.43-8.12.98-16.23,1.9-24.35,2.76-2.24.29-26.03,3.93-27.19,2.06-3.3-5.16,3.05-6.91,7.02-7.78,7.45-1.63,14.91-3.32,22.36-5.06,14.12-2.02,28.24-4.22,42.35-6.6,5.61-.64,11.23-1.32,16.84-2.02,6.77-.79,31.26-6.89,37.44,4.52.16,5.26-35.9,10.6-41.87,8.37,6.96,26.12,10.31,52.06,13.31,78.52.93,8.18,1.86,16.35,2.79,24.53.53,7.01,1.07,14.02,1.6,21.04.69,8.99,3.82,19.92-.87,27.25-1.72,2.69-9.69,5.52-11.78,3.11Z"/>
      <path class="st2" d="M2488.16,2193.02c-4.64-7.61-4.98-15.27-3.81-23.33.77-5.28-3.24-9.68-3.49-14.57-.55-10.69-.17-20.85-.07-31.41.75-1.24,2.48-1.95,2.65-2.72.34-1.58-1.96-3.6-4.24-2.19-5.25,3.22-10.84,2.04-15.76,3.66-7.29,2.4-13.06,5.35-20.53,5.92-4.68.35-17.11,6.83-21,1.57-4.13-5.62,23.68-13.49,31.2-16.14,7.07-2.56,14.14-5.08,21.22-7.57,6.77-2.38,12.88-3.81,19.46-7.56-7.74,4.13,57.58-15.5,54.72-9.38-13.2,7.07-24.03,12.98-36.99,18.52-5.48,2.33-16.41,2.99-18.86,8.82.62,8.23,1.24,16.45,1.86,24.68,1.63,7.44,3.27,14.88,4.9,22.32,5.11,23.29,12.25,38.36,6.31,59.17-.93,3.26-3.49,10.22-7.03,9.44-6.5-.65-14.77-35.47-10.54-39.2Z"/>
      <path class="st2" d="M1545.92,2497.49c1.57,6.95-3.29,15.08.78,22.27-15.23.62-20.65-66.53-21.44-78.72-.53-8.23-1.06-16.47-1.6-24.7-.69-10.73-1.36-20.79,6.71-30.17.55-.64.94-2.61,1.72-2.76.6-.11,1.66,1.26,3.44,2-7.95,8.79-1.98,32.22-.63,41.8,1.04,7.43,2.08,14.85,3.12,22.28,1.69,8.59,3.37,17.19,5.06,25.78,1.37,6.97.96,13.88,2.84,22.23Z"/>
      <path class="st2" d="M2646.6,2182.43c-2.14-.3-36.79,8.56-52.98,2.87,2.21,8.53-.88,35.45-.35,42.83.43,5.95.87,11.9,1.3,17.85-.09-1.26-10.85,19.99-16.9,16.44-1.88-1.1-1.96-2.29-1.22-5.21,1.62-6.41-3.72-13.75-1.58-19.73,2.26-6.3,1.07-11.37,1.22-17.78.22-9.3.43-18.59.65-27.88.24-10.15-.8-19.26-.83-29.4-.04-14.11,1.19-29.17-3.79-42.44,2.76-3.14,2.56-8.13,4.31-11.47,12.85-24.77,62.07-30.11,90.4-15.73,10.91,5.47,16.97,16.34,14.16,27.42-5.62,22.13-48.76,36.93-66.61,49.07-9.44,4.03,66.37-10.56,54.02-6.92,13.09-3.85,55.2-.68,68.73,6.04-2.81,7.22-14.13,2.85-19.33,5.47-4.97,2.5-10.33-2.55-15.29,0-11.98,6.16-24.06,3.87-37.95,5.16-6.21.58-11.17,3.81-17.96,3.4ZM2618.85,2143.33c3.7-2.17,7.39-4.32,11.09-6.46,10.05-5.82,20.41-12.21,27.19-21.73-5.44-8.61-14.81-8.01-22.38-10.64-8.39-2.92-13.76-1.87-22.16.27-5.24,1.33-11.66-1.39-16.35,4.28-2.02,2.44-3.66,4-5.9,5.61-5.65,4.06-.63,8.42-2.55,13.47-1.97,5.19-1.19,7.4-.12,12.52,1.68,8.05-1.04,16.88,2.7,23.75,11.22-8.59,17.05-14.38,28.47-21.08Z"/>
      <path class="st2" d="M1529.9,2362.21c5.96-5.39,11.92-10.79,17.87-16.21,4.1-3.73,6.22-7.67,12.08-9.79,5.56-2.02,5.51-10.4,10.88-13.07,2.44-1.22,3.11-2,2.18-4.05-3-6.6-19.92,2.64-19.22,1.8-3.32,3.9-6.64,7.8-9.96,11.69-.18.2-.4.35-.58.55-7.08,10.77-18.11,18.36-17.27,31.55,4.84,1.72,2.42-1.03,4.02-2.47Z"/>
    </g>
  </g>
</svg>